<svg width="69" height="65" viewBox="0 0 69 65" fill="none" xmlns="http://www.w3.org/2000/svg">
<g filter="url(#filter0_d)">
<rect x="5" y="4" width="52.7949" height="48.868" rx="6" fill="url(#paint0_linear)"/>
</g>
<path d="M10.1718 23.5988V23.8268H11.3118V31.8428H10.1718V32.0708H13.6518V31.8428H12.5118V27.9908H13.6518C14.3718 27.9788 15.3558 27.9668 16.1118 27.2828C16.4358 26.9948 16.7838 26.5268 16.7838 25.8068C16.7838 24.8828 16.2078 24.0668 15.1998 23.7548C14.6598 23.5988 14.0478 23.5988 13.3878 23.5988H10.1718ZM13.1478 23.8508C14.1198 23.8508 14.4678 23.8628 14.8158 24.0788C15.2598 24.3548 15.4038 24.7988 15.4038 25.7708C15.4038 26.6228 15.3198 27.0308 15.0078 27.3428C14.6358 27.7148 14.2158 27.7148 13.4838 27.7268H12.5118V23.8508H13.1478ZM17.6958 27.8348C17.6958 28.6268 17.8398 29.6948 18.5838 30.7148C18.8958 31.1468 19.7958 32.2148 21.3078 32.2148C23.0958 32.2148 24.2958 30.6908 24.7038 29.3828C24.8598 28.8788 24.9198 28.3628 24.9198 27.8348C24.9198 26.9108 24.7398 25.9148 24.0318 24.9548C23.6118 24.3908 22.7238 23.4548 21.3078 23.4548C19.5318 23.4548 18.3198 24.9548 17.9118 26.2868C17.7558 26.7908 17.6958 27.3068 17.6958 27.8348ZM20.5638 31.7828C19.3758 31.3868 19.2798 30.3668 19.2198 29.8628C19.1598 29.2868 19.1478 28.6628 19.1478 27.8708C19.1478 27.0788 19.1598 26.3948 19.2198 25.8068C19.2678 25.3868 19.3398 24.7868 19.8318 24.3188C20.2038 23.9588 20.7798 23.7668 21.3078 23.7668C21.7878 23.7668 22.8198 23.9468 23.2158 24.9668C23.3958 25.4348 23.4678 26.2508 23.4678 27.8708C23.4678 30.1988 23.3238 30.8348 22.7958 31.3508C22.4118 31.7108 21.8478 31.9028 21.3078 31.9028C21.0558 31.9028 20.8038 31.8668 20.5638 31.7828ZM32.3233 29.4308C31.8793 31.2548 31.3513 31.6508 30.8473 31.7828C30.6913 31.8188 30.6673 31.8188 29.6473 31.8428H28.2673V27.9068H28.6513C29.1433 27.9068 29.8153 27.9068 30.0673 28.4828C30.1753 28.7108 30.1873 28.9628 30.2353 29.5748H30.4153V26.1068H30.2353C30.2113 26.9468 30.0913 27.1388 30.0433 27.2108C29.7673 27.6548 29.2153 27.6548 28.6513 27.6668H28.2673V23.8268H29.1913C30.2833 23.8268 31.0033 23.8268 31.5073 24.6428C31.7233 24.9788 31.7593 25.1108 31.9753 25.9268H32.1193L32.0353 23.5988H25.9873V23.8268H27.0913V31.8428H25.9873V32.0708H32.2393L32.4673 29.4308H32.3233ZM38.4731 23.4548L38.0411 24.0068C37.7291 23.7908 37.2131 23.4548 36.4331 23.4548C34.8251 23.4548 34.0931 24.8468 34.0931 25.9988C34.0931 26.6588 34.3571 27.3068 34.8851 27.6908C35.2571 27.9668 35.7491 28.0988 36.3131 28.2428L36.7931 28.3628C37.5011 28.5668 38.4731 28.8308 38.4731 30.0308C38.4731 31.1828 37.6571 31.8908 36.6011 31.8908C35.7371 31.8908 35.1011 31.4108 34.7411 30.9428C34.3211 30.4028 34.2371 29.8268 34.1891 29.4548H33.8891L33.9611 32.0708H34.1891L34.6451 31.3988C34.9331 31.6868 35.5451 32.2148 36.5651 32.2148C38.3771 32.2148 39.0851 30.6308 39.0851 29.3348C39.0851 27.4148 37.7771 27.0548 36.9251 26.8268L36.4691 26.7068C35.3291 26.4068 34.7051 26.1668 34.7051 25.2788C34.7051 24.3428 35.5331 23.7428 36.3971 23.7428C37.2611 23.7428 37.8851 24.3188 38.1491 24.8588C38.3051 25.1708 38.3411 25.4468 38.3771 25.6748H38.6771L38.6051 23.4548H38.4731ZM43.7349 23.5988H40.2429V23.8268H41.3709V31.8428H40.2429V32.0708H43.7349V31.8428H42.6069V23.8268H43.7349V23.5988ZM50.9829 29.4308C50.5389 31.2548 50.0109 31.6508 49.5069 31.7828C49.3509 31.8188 49.3269 31.8188 48.3069 31.8428H46.9269V27.9068H47.3109C47.8029 27.9068 48.4749 27.9068 48.7269 28.4828C48.8349 28.7108 48.8469 28.9628 48.8949 29.5748H49.0749V26.1068H48.8949C48.8709 26.9468 48.7509 27.1388 48.7029 27.2108C48.4269 27.6548 47.8749 27.6548 47.3109 27.6668H46.9269V23.8268H47.8509C48.9429 23.8268 49.6629 23.8268 50.1669 24.6428C50.3829 24.9788 50.4189 25.1108 50.6349 25.9268H50.7789L50.6949 23.5988H44.6469V23.8268H45.7509V31.8428H44.6469V32.0708H50.8989L51.1269 29.4308H50.9829Z" fill="white"/>
<rect x="1.05535" y="0.949948" width="44.7987" height="40.5803" rx="5" transform="matrix(0.998825 -0.0484527 0.0565286 0.998401 6.76981 7.98646)" stroke="white" stroke-width="2"/>
<defs>
<filter id="filter0_d" x="0" y="0" width="68.7949" height="64.868" filterUnits="userSpaceOnUse" color-interpolation-filters="sRGB">
<feFlood flood-opacity="0" result="BackgroundImageFix"/>
<feColorMatrix in="SourceAlpha" type="matrix" values="0 0 0 0 0 0 0 0 0 0 0 0 0 0 0 0 0 0 127 0"/>
<feOffset dx="3" dy="4"/>
<feGaussianBlur stdDeviation="4"/>
<feColorMatrix type="matrix" values="0 0 0 0 0 0 0 0 0 0 0 0 0 0 0 0 0 0 0.36 0"/>
<feBlend mode="normal" in2="BackgroundImageFix" result="effect1_dropShadow"/>
<feBlend mode="normal" in="SourceGraphic" in2="effect1_dropShadow" result="shape"/>
</filter>
<linearGradient id="paint0_linear" x1="31.3975" y1="4" x2="58.0775" y2="16.2087" gradientUnits="userSpaceOnUse">
<stop stop-color="#FE7F7D"/>
<stop offset="1" stop-color="#FE6462"/>
</linearGradient>
</defs>
</svg>
